<?xml version="1.0" standalone="no"?>
<!DOCTYPE svg PUBLIC "-//W3C//DTD SVG 20010904//EN"
 "http://www.w3.org/TR/2001/REC-SVG-20010904/DTD/svg10.dtd">
<svg version="1.0" xmlns="http://www.w3.org/2000/svg"
 width="324.000000pt" height="330.000000pt" viewBox="0 0 324.000000 330.000000"
 preserveAspectRatio="xMidYMid meet">

<g transform="translate(0.000000,330.000000) scale(0.100000,-0.100000)"
fill="#000000" stroke="none">
<path d="M1500 2825 l0 -195 100 0 c143 0 180 22 180 109 0 27 -7 48 -24 68
-24 28 -24 29 -5 52 10 13 19 39 19 58 0 79 -40 103 -175 103 l-95 0 0 -195z
m205 135 c8 -7 15 -27 15 -46 0 -47 -29 -64 -107 -64 l-63 0 0 66 0 67 70 -5
c38 -3 77 -11 85 -18z m-10 -160 c31 -12 48 -51 35 -84 -11 -29 -56 -46 -126
-46 l-54 0 0 70 0 70 59 0 c33 0 71 -4 86 -10z"/>
<path d="M1224 2972 c-8 -5 0 -61 29 -194 34 -157 44 -188 58 -188 10 0 20 4
23 9 4 5 -12 91 -34 192 -22 100 -40 184 -40 186 0 6 -25 3 -36 -5z"/>
<path d="M2005 2968 c-34 -103 -65 -231 -65 -267 0 -87 60 -144 152 -145 53
-1 92 22 121 72 21 36 88 263 81 274 -3 4 -13 8 -23 8 -14 0 -25 -24 -51 -112
-38 -133 -52 -162 -85 -184 -49 -32 -137 7 -148 65 -4 19 6 72 28 150 19 66
35 127 35 135 0 19 -39 22 -45 4z"/>
<path d="M885 2862 c-43 -16 -113 -49 -123 -57 -3 -3 146 -345 153 -353 2 -2
13 1 24 7 l21 11 -26 58 c-14 31 -21 58 -17 60 51 20 120 63 137 85 26 35 27
104 2 141 -38 58 -97 75 -171 48z m108 -52 c34 -27 44 -73 23 -105 -14 -21
-101 -75 -121 -75 -6 0 -77 152 -73 155 21 13 108 44 124 45 12 0 33 -9 47
-20z"/>
<path d="M2487 2675 c-6 -145 -6 -146 -41 -202 -27 -43 -33 -60 -25 -70 19
-22 27 -16 66 46 34 55 43 61 143 111 58 29 114 58 125 66 18 14 18 14 -1 28
-17 13 -28 10 -112 -35 -51 -27 -97 -49 -103 -49 -7 0 -10 37 -7 111 3 104 2
112 -18 125 -21 14 -21 14 -27 -131z"/>
<path d="M530 2685 c-11 -13 -2 -39 53 -157 37 -78 65 -143 63 -145 -2 -2 -68
28 -146 67 -113 56 -145 69 -156 59 -8 -6 -14 -17 -14 -24 0 -7 27 -75 59
-152 33 -76 58 -140 56 -142 -2 -2 -66 31 -141 73 -133 74 -139 76 -156 59
-17 -18 -11 -22 163 -117 165 -91 182 -98 196 -83 15 15 11 29 -49 170 l-65
155 153 -73 c140 -67 154 -72 167 -57 13 15 5 37 -71 200 -47 100 -89 182 -93
182 -4 0 -12 -7 -19 -15z"/>
<path d="M2849 2441 c-39 -39 -38 -74 6 -171 39 -87 42 -102 19 -124 -28 -29
-68 -20 -108 24 -37 41 -45 75 -25 111 7 15 7 24 -2 35 -17 21 -27 17 -44 -16
-27 -52 -13 -111 39 -168 65 -72 165 -68 196 8 15 35 9 64 -31 148 -44 93 -37
132 24 132 61 0 118 -91 88 -139 -9 -13 6 -51 19 -51 13 0 40 60 40 88 0 35
-46 106 -86 133 -45 29 -99 25 -135 -10z"/>
<path d="M823 1870 c-125 -33 -212 -91 -273 -183 -130 -193 -127 -445 8 -657
53 -84 159 -183 235 -219 112 -53 137 -36 69 48 -171 207 -227 406 -156 555
20 41 30 45 39 15 10 -29 63 -88 105 -114 54 -34 155 -63 255 -75 50 -5 92
-10 95 -10 3 0 5 -62 5 -138 1 -225 29 -330 121 -456 61 -84 104 -168 104
-206 0 -46 29 -139 56 -180 41 -62 83 -83 155 -78 51 4 64 9 95 39 49 47 73
97 89 188 16 93 40 146 101 226 95 124 125 233 127 457 1 82 4 148 7 148 3 0
46 5 95 10 184 21 307 84 358 184 l15 30 22 -45 c32 -60 38 -166 15 -244 -26
-91 -72 -176 -147 -275 -89 -118 -80 -137 37 -82 148 70 286 244 330 417 8 32
15 98 15 145 0 147 -43 268 -130 362 -103 113 -245 164 -429 155 -125 -6 -191
-26 -288 -90 -72 -46 -167 -142 -219 -218 -23 -33 -41 -48 -71 -57 -66 -20
-102 -1 -162 84 -91 131 -232 234 -367 269 -80 21 -222 18 -311 -5z m261 -26
c13 -5 10 -13 -18 -45 -19 -21 -40 -56 -46 -78 -11 -41 -11 -41 -38 -27 -21
11 -125 36 -149 36 -7 0 -2 60 6 84 7 16 20 26 38 29 46 7 190 7 207 1z m1288
0 c34 -6 39 -11 49 -46 13 -52 6 -68 -29 -68 -26 0 -91 -17 -133 -34 -12 -5
-18 3 -28 34 -6 22 -25 55 -41 74 -16 18 -27 36 -23 40 8 8 156 8 205 0z
m-1580 -69 c-4 -47 -5 -48 -77 -60 -21 -4 -57 -16 -78 -27 -21 -10 -41 -17
-43 -15 -15 15 160 145 196 147 3 0 4 -20 2 -45z m449 14 c61 -33 139 -94 139
-110 0 -5 -8 -9 -18 -9 -34 0 -122 -52 -160 -95 l-37 -43 -58 63 c-31 35 -57
69 -57 77 1 26 38 96 66 122 37 33 53 33 125 -5z m909 -8 c21 -22 41 -56 47
-79 10 -38 9 -42 -20 -69 -16 -15 -42 -45 -57 -66 l-28 -38 -22 31 c-29 41
-99 87 -154 102 -25 7 -46 16 -46 20 0 12 119 98 165 119 57 27 74 24 115 -20z
m405 -6 c35 -21 117 -95 104 -95 -3 0 -22 9 -44 20 -21 11 -61 23 -87 26 -55
7 -53 6 -62 56 l-7 38 28 -11 c15 -5 46 -21 68 -34z m-135 -92 c0 -5 -8 -21
-18 -38 -18 -29 -20 -30 -85 -27 -37 2 -67 8 -67 13 0 9 51 38 90 50 33 10 80
11 80 2z m142 -7 c21 -8 49 -21 63 -30 l26 -17 -22 -30 c-12 -17 -39 -42 -60
-56 l-39 -25 -34 30 c-19 17 -43 35 -53 40 -17 10 -17 12 0 40 9 17 17 37 17
46 0 20 49 21 102 2z m-1751 -38 c13 -26 17 -44 11 -46 -6 -2 -31 -19 -55 -37
l-45 -34 -40 29 c-47 33 -75 71 -64 82 16 16 107 47 139 48 28 0 35 -6 54 -42z
m139 24 c70 -27 64 -47 -12 -46 -51 2 -65 6 -80 24 -10 12 -18 26 -18 31 0 15
61 9 110 -9z m522 -84 c37 -55 38 -58 25 -90 -36 -85 -113 -137 -203 -138 -59
0 -63 4 -89 82 l-19 56 27 36 c15 19 42 46 60 60 32 25 120 56 146 53 8 -1 32
-28 53 -59z m425 47 c62 -18 123 -62 152 -108 l21 -34 -20 -59 c-11 -32 -26
-62 -33 -66 -22 -14 -101 -8 -142 11 -44 19 -101 78 -116 119 -7 18 -7 34 1
51 14 31 69 101 79 101 4 0 30 -7 58 -15z m313 -25 c0 -5 -5 -10 -11 -10 -5 0
-7 5 -4 10 3 6 8 10 11 10 2 0 4 -4 4 -10z m521 -75 c26 -58 35 -125 18 -135
-21 -14 -106 -22 -123 -13 -9 5 -27 31 -41 58 l-25 50 22 14 c13 8 41 34 63
58 45 48 50 46 86 -32z m-2119 29 c17 -19 44 -42 59 -50 l28 -14 -27 -55 c-30
-61 -45 -70 -105 -61 -69 11 -73 16 -59 82 10 50 53 134 67 134 3 0 20 -16 37
-36z m396 9 l37 -18 -57 -3 c-32 -2 -84 -2 -115 0 l-58 3 45 17 c59 22 102 22
148 1z m1387 -2 l40 -19 -115 0 -115 0 40 19 c22 10 56 18 75 18 19 0 53 -8
75 -18z m-1270 -108 c19 -27 42 -67 51 -89 13 -33 22 -43 46 -48 134 -27 252
28 306 141 17 36 20 37 56 24 18 -8 25 -19 28 -43 4 -43 32 -45 36 -3 3 30 25
55 48 55 7 0 24 -20 37 -43 53 -90 129 -137 223 -137 85 0 103 9 131 63 14 28
37 68 51 89 l25 38 145 0 145 0 -24 -26 c-55 -59 -254 -161 -378 -194 l-44
-11 5 -91 c7 -107 3 -125 -26 -134 -51 -15 -96 -83 -96 -144 0 -23 4 -30 20
-30 15 0 20 7 20 28 0 40 13 57 30 37 7 -8 19 -15 28 -15 36 0 -18 -169 -81
-249 -75 -95 -106 -161 -123 -257 -19 -109 -39 -149 -94 -187 -13 -9 -39 -17
-58 -17 -81 0 -133 66 -157 199 -18 102 -37 145 -114 250 -84 115 -130 261
-82 261 11 0 26 7 35 15 21 21 23 20 31 -25 4 -25 12 -40 21 -40 22 0 28 27
15 71 -16 52 -48 87 -96 104 l-40 13 0 107 0 106 -75 25 c-113 38 -249 108
-305 158 l-50 45 137 1 138 0 35 -47z m-158 -116 c45 -23 80 -43 78 -45 -5 -5
-118 30 -156 49 -41 21 -109 92 -109 115 0 10 18 0 53 -31 28 -25 89 -64 134
-88z m1503 103 c0 -16 -62 -80 -94 -97 -32 -17 -146 -54 -146 -48 0 2 35 22
78 45 43 23 96 57 118 76 44 38 44 38 44 24z m-1870 -110 l35 0 -1 -67 c0 -67
-1 -68 -32 -77 -53 -15 -78 -2 -91 48 -6 25 -11 61 -11 80 0 34 0 35 32 25 18
-5 49 -9 68 -9z m2148 -84 c-16 -60 -34 -73 -85 -60 l-38 9 -3 68 -3 67 43 1
c24 1 54 4 68 8 22 6 25 4 28 -18 1 -15 -3 -48 -10 -75z m-2080 -148 c11 -29
23 -60 26 -69 5 -11 -2 -19 -20 -28 -22 -10 -30 -9 -46 5 -17 16 -78 114 -78
127 0 5 26 10 81 15 11 1 23 -15 37 -50z m2019 42 l24 0 -26 -48 c-14 -26 -36
-60 -48 -76 -21 -26 -25 -27 -50 -15 -19 8 -27 18 -23 28 3 9 13 40 23 69 17
50 20 53 47 48 16 -4 39 -6 53 -6z m-1397 -165 c0 -8 -4 -15 -10 -15 -5 0 -10
7 -10 15 0 8 5 15 10 15 6 0 10 -7 10 -15z m720 0 c0 -8 -4 -15 -10 -15 -5 0
-10 7 -10 15 0 8 5 15 10 15 6 0 10 -7 10 -15z m-1243 -61 c41 -62 42 -64 15
-50 -15 8 -45 30 -67 50 -39 35 -39 36 -21 51 11 8 22 15 25 15 3 -1 25 -30
48 -66z m1813 36 c0 -7 -89 -78 -119 -95 -10 -6 -11 -4 -5 6 80 123 75 118
100 107 13 -6 24 -14 24 -18z"/>
<path d="M1510 375 c-9 -11 -6 -17 16 -31 15 -10 33 -33 40 -51 15 -36 31 -42
41 -17 17 44 -69 132 -97 99z"/>
<path d="M1689 350 c-22 -22 -29 -37 -27 -57 4 -34 32 -38 36 -5 2 12 17 32
33 44 16 12 29 28 29 35 0 23 -41 14 -71 -17z"/>
</g>
</svg>
